<?xml version="1.0" encoding="UTF-8"?>
<svg id="Layer_1" xmlns="http://www.w3.org/2000/svg" version="1.1" viewBox="0 0 612 192">
  <!-- Generator: Adobe Illustrator 29.7.0, SVG Export Plug-In . SVG Version: 2.1.1 Build 138)  -->
  <defs>
    <style>
      .st0 {
        fill: #fff;
      }

      .st1 {
        fill: #e30613;
      }
    </style>
  </defs>
  <path class="st0" d="M112.31,98.34c15.84-17.57,31.46-34.87,47.06-52.18,3.73-4.14,4.72-4.03,7.46.86,4.94,8.83,4.12,17.08-2.75,24.78-12.07,13.54-24.29,26.95-36.38,40.48-8.64,9.67-11.95,20.71-7.34,33.22,4.64,12.61,14.15,19.78,27.33,20.9,17.83,1.51,32.73-12.36,34-28.78.54-6.96-.4-13.98.97-20.91,1.55-7.83,8.43-14.48,16.19-15.69,2.9-.45,4.08.7,4.09,3.42.04,12.81.93,25.7-.95,38.4-3.85,25.93-27.11,44.99-53.48,44.46-25.53-.51-47.96-20.82-50.62-46.49-1.66-16.02,3.31-30.2,14.43-42.46Z"/>
  <path class="st0" d="M162.95,121.95c-8.53,9.52-16.81,18.78-25.05,27.99-8.34-6.34-10.16-17.81-3.64-26.25,6.6-8.54,14.19-16.32,21.39-24.4,6.09-6.84,12.37-13.52,18.34-20.46,9.42-10.95,10.54-26.36,3-38.04-7.32-11.33-21.95-17.12-34.36-13.59-14.78,4.21-23.99,16.06-24.36,30.99-.15,6.14.72,12.32-.83,18.41-2.34,9.21-9.09,14.61-18.66,14.79-.24-.22-.68-.44-.68-.66,0-16.39-2.75-32.96,2.31-49.06,7.27-23.14,29.02-37.41,54.34-35.98,22.05,1.25,42.35,19.54,46.68,42.06,3.37,17.58-1.38,32.96-12.99,46.25-8.22,9.4-16.81,18.47-25.48,27.94Z"/>
  <path class="st0" d="M363.13,114.04c-4.22,2.24-4.32-.43-4.46-3.18-.32-6.3.51-12.61-.68-18.92-.87-4.61-3.2-7.26-7.86-7.5-4.47-.23-7.7,2.93-8.86,7.87-1.4,5.93-.69,11.92-.95,17.89-.09,2,.7,4.92-2.67,4.81-3.2-.1-2.57-2.96-2.62-4.99-.14-5.83-.11-11.65-.19-17.48-.04-3.63-1.28-6.66-5.03-7.76-3.81-1.12-6.85.61-9.22,3.47-2.57,3.1-3.13,6.91-3.21,10.78-.09,4.16,0,8.33-.07,12.49-.02,1.65.07,3.52-2.38,3.61-2.19.08-2.95-1.32-2.97-3.18-.1-9.49-.14-18.98-.22-28.48-.01-1.77.73-2.88,2.56-3.03,2.67-.21,3,1.9,3.22,4.03,8.7-6.84,14.62-6.64,21.57.71,3.6-4.04,8.08-6.05,13.61-5.49,5.33.53,9.7,3.9,10.44,9.15,1.16,8.25,1.37,16.56-.02,25.22Z"/>
  <path class="st0" d="M375.74,80.35c2.77-.27,3.26,1.69,4.05,3.25,12.15-5.83,21.05-5.04,26.72,2.31,5.3,6.88,5.27,17.19-.07,23.64-6.11,7.39-14.84,8.23-26.5,2.37-1.4,4.94-.4,9.9-.71,14.76-.15,2.28.3,5.24-3.18,5.04-3.29-.19-2.33-3.16-2.34-5.11-.08-13.82-.07-27.64-.02-41.47,0-1.69-.69-3.8,2.05-4.8M379.46,93.05c-1.96,7.76.86,14.12,7.47,16.82,6.04,2.46,12.55.59,15.81-4.55,4.01-6.32,2.25-15.37-3.68-18.95-6.91-4.17-14.84-1.71-19.6,6.69Z"/>
  <path class="st1" d="M442.42,68.46c-6.66-3.15-14.25-1.59-16.67,3.13-2.34,4.56-.32,10.01,4.91,12.38,3.47,1.57,7.21,2.54,10.74,3.99,7.4,3.03,10.38,7.47,9.87,14.36-.52,6.98-5.11,12.03-12.45,13.69-7.87,1.78-16.37-1.37-20.72-7.81,2.21-3.06,4.16-3.8,7.43-.68,6.14,5.85,16.21,4.12,18.97-2.84,1.87-4.71.86-8.05-3.72-10.39-3.53-1.81-7.25-3.46-11.08-4.46-8.62-2.26-11.81-10.96-10.85-16.36,1.27-7.14,8.22-12.73,16.48-12.56,5.66.12,11.17,1.38,14.64,6.79-2.29,3.5-4.58,4.09-7.56.77Z"/>
  <path class="st0" d="M298.81,99.31c-6.63,0-12.78-.04-18.93.03-4.79.05-5.52,1.46-3.13,5.71,3.18,5.65,11.22,7.68,16.98,4.19,1.68-1.02,3.16-2.36,4.77-3.58,3.72,1.46,3.57,3.36.95,5.81-7.85,7.37-24.59,6.93-29.22-8.24-4.02-13.19,5.64-24.83,19.3-23.51,7.62.74,14.29,8.82,13.76,16.42-.2,2.81-1.81,3.2-4.48,3.16M291.24,94.66c2.03-.31,4.31.77,6.06-1.03-1.31-6.11-5.91-9.72-11.54-9.14-5.81.6-9.55,4.3-9.71,10.17,4.75,0,9.51,0,15.19,0Z"/>
  <path class="st0" d="M232.04,67.36c-2.89-.7-7.28,1.77-7.41-2.35-.14-4.5,4.46-2.85,7.05-2.91,9.15-.24,18.31-.1,27.47-.08,1.33,0,2.67.06,3.97.28,1.56.26,2.18,1.31,2.04,2.89-.13,1.46-1.02,2.02-2.31,2.07-2.16.08-4.33.1-6.49.09q-8.26-.01-8.27,8.49c0,10.66,0,21.31,0,31.97,0,1.33-.01,2.66-.08,3.99-.11,2.13-1.02,3.47-3.39,3.35-2.21-.11-2.76-1.58-2.77-3.4-.05-7.49-.07-14.98-.08-22.48-.01-5.16-.3-10.34.08-15.48.37-4.95-1.14-7.3-6.35-6.46-.97.16-1.99.02-3.46.02Z"/>
  <path class="st1" d="M462.44,132.43c-1.69-.02-3.02-.02-4.33-.19-1.35-.17-2.08-1.08-1.99-2.42.09-1.3.81-1.92,2.21-2.22,7.75-1.65,12.01-9.79,9.03-17.16-3.24-8.02-6.55-16-9.8-24.02-.67-1.66-1.65-3.26-1.42-5.33,3.81-2.33,5.33.09,6.54,3.12,2.87,7.24,5.72,14.49,9.81,21.92,2.47-6.39,4.82-12.83,7.47-19.14,1.17-2.79,1.33-8.2,5.75-6.39,4.23,1.73.15,5.51-.77,7.99-4.44,12.01-9.28,23.87-14.02,35.76-1.53,3.83-3.58,7.19-8.49,8.07Z"/>
  <path class="st1" d="M498.34,115.14c-3.65-1.25-6.18-3.19-7.49-6.5,1.89-2.81,3.75-3.03,6.1-.65,2.53,2.56,5.81,3.09,9.24,2.64,2.73-.36,4.77-1.88,5.21-4.62.48-3.02-1.68-4.52-4.19-5.36-2.51-.84-5.11-1.41-7.66-2.13-4.57-1.3-7.81-3.92-7.76-9.03.05-5.01,3.18-8,7.68-9.28,4.81-1.37,9.61-.9,13.7,2.34,1.33,1.06,3.22,2.53,1.62,4.53-1.51,1.9-3.22,1.63-5.04-.18-2.55-2.54-5.69-3.27-9.16-1.72-1.99.88-3.33,2.16-3.22,4.51.1,2.2,1.61,3.22,3.43,3.78,2.06.63,4.2.99,6.28,1.54,7.69,2.02,10.99,6.12,9.66,11.97-1.38,6.1-7.75,10-14.6,8.93-1.15-.18-2.28-.45-3.81-.77Z"/>
</svg>