<?xml version="1.0" encoding="UTF-8" standalone="yes"?>
<svg version="1.2" width="100%" viewBox="0 0 198 198" xml:space="preserve" baseProfile="tiny-ps" xmlns="http://www.w3.org/2000/svg">
  <title>bimi-svg-tiny-12-ps</title>
  <path fill="#010101" stroke="none" d="&#xA;M1.000000,162.000000 &#xA;&#x9;C1.000000,120.979103 1.000000,79.958214 1.287265,38.249619 &#xA;&#x9;C3.837590,28.881460 8.165944,21.377342 14.354736,14.899186 &#xA;&#x9;C20.927763,8.018829 29.277029,4.201325 38.000000,1.000000 &#xA;&#x9;C79.020897,1.000000 120.041786,1.000000 161.750381,1.287264 &#xA;&#x9;C171.118530,3.837595 178.622665,8.165931 185.100815,14.354741 &#xA;&#x9;C191.981155,20.927771 195.798706,29.277010 199.000000,38.000000 &#xA;&#x9;C199.000000,79.020897 199.000000,120.041786 198.712738,161.750381 &#xA;&#x9;C196.162399,171.118530 191.834061,178.622635 185.645264,185.100800 &#xA;&#x9;C179.072220,191.981140 170.722992,195.798706 162.000000,199.000000 &#xA;&#x9;C120.979103,199.000000 79.958214,199.000000 38.249615,198.712738 &#xA;&#x9;C28.881454,196.162415 21.377335,191.834076 14.899191,185.645264 &#xA;&#x9;C8.018841,179.072235 4.201316,170.722977 1.000000,162.000000 &#xA;M89.892578,87.389381 &#xA;&#x9;C85.431252,92.323959 80.855385,97.160553 76.532745,102.213760 &#xA;&#x9;C67.862587,112.349266 65.832680,123.974930 71.087738,136.058945 &#xA;&#x9;C76.281059,148.000977 86.190453,154.617050 99.239754,154.860184 &#xA;&#x9;C112.266479,155.102844 122.134529,148.993210 128.174637,137.222122 &#xA;&#x9;C133.774826,126.308380 131.251938,114.640266 131.840347,103.169487 &#xA;&#x9;C124.597885,103.661362 120.322914,107.676216 119.938950,113.992317 &#xA;&#x9;C119.706963,117.808380 119.987000,121.679710 119.476517,125.450333 &#xA;&#x9;C117.695503,138.605576 104.229210,146.556381 92.493141,141.560562 &#xA;&#x9;C80.070686,136.272598 76.416222,120.883308 85.359207,110.467834 &#xA;&#x9;C92.722023,101.892715 100.517601,93.690727 107.994606,85.211578 &#xA;&#x9;C113.402191,79.079224 113.105103,72.623047 107.361343,67.960106 &#xA;&#x9;C101.708664,74.265511 96.051216,80.576233 89.892578,87.389381 &#xA;M107.334343,115.823257 &#xA;&#x9;C112.781784,109.760521 118.380409,103.825684 123.642448,97.606087 &#xA;&#x9;C132.273071,87.404900 134.031281,75.841347 128.649750,63.702770 &#xA;&#x9;C123.209007,51.430645 113.050308,45.108353 99.838989,45.158955 &#xA;&#x9;C86.788803,45.208942 77.042877,51.732590 71.402153,63.662346 &#xA;&#x9;C66.359879,74.326431 68.616997,85.672585 68.210510,96.886131 &#xA;&#x9;C76.210884,95.842186 79.897156,91.995178 80.154320,84.863350 &#xA;&#x9;C80.256363,82.033562 80.028572,79.184837 80.245384,76.367393 &#xA;&#x9;C81.452538,60.680458 97.233177,52.020061 110.222404,59.861324 &#xA;&#x9;C120.874596,66.291779 122.886253,80.083122 114.334366,90.001518 &#xA;&#x9;C107.272469,98.191833 99.933823,106.148582 92.573578,114.074898 &#xA;&#x9;C87.071579,120.000046 86.735741,127.823814 92.514893,132.141052 &#xA;&#x9;C97.276436,126.882881 102.055206,121.605690 107.334343,115.823257 &#xA;z"/>
  <path fill="#FBFBFB" stroke="none" d="&#xA;M37.531342,1.000000 &#xA;&#x9;C29.277029,4.201325 20.927763,8.018829 14.354736,14.899186 &#xA;&#x9;C8.165944,21.377342 3.837590,28.881460 1.287265,37.780960 &#xA;&#x9;C1.000000,25.740049 1.000000,13.480098 1.000000,1.000000 &#xA;&#x9;C13.020000,1.000000 25.041342,1.000000 37.531342,1.000000 &#xA;z"/>
  <path fill="#FBFBFB" stroke="none" d="&#xA;M199.000000,37.531342 &#xA;&#x9;C195.798706,29.277010 191.981155,20.927771 185.100815,14.354741 &#xA;&#x9;C178.622665,8.165931 171.118530,3.837595 162.219040,1.287264 &#xA;&#x9;C174.259949,1.000000 186.519897,1.000000 199.000000,1.000000 &#xA;&#x9;C199.000000,13.020000 199.000000,25.041342 199.000000,37.531342 &#xA;z"/>
  <path fill="#FBFBFB" stroke="none" d="&#xA;M1.000000,162.468658 &#xA;&#x9;C4.201316,170.722977 8.018841,179.072235 14.899191,185.645264 &#xA;&#x9;C21.377335,191.834076 28.881454,196.162415 37.780956,198.712738 &#xA;&#x9;C25.740049,199.000000 13.480098,199.000000 1.000000,199.000000 &#xA;&#x9;C1.000000,186.979996 1.000000,174.958664 1.000000,162.468658 &#xA;z"/>
  <path fill="#FBFBFB" stroke="none" d="&#xA;M162.468658,199.000000 &#xA;&#x9;C170.722992,195.798706 179.072220,191.981140 185.645264,185.100800 &#xA;&#x9;C191.834061,178.622635 196.162399,171.118530 198.712738,162.219040 &#xA;&#x9;C199.000000,174.259949 199.000000,186.519897 199.000000,199.000000 &#xA;&#x9;C186.979996,199.000000 174.958664,199.000000 162.468658,199.000000 &#xA;z"/>
  <path fill="#FBFBFB" stroke="none" d="&#xA;M90.143173,87.138168 &#xA;&#x9;C96.051216,80.576233 101.708664,74.265511 107.361343,67.960106 &#xA;&#x9;C113.105103,72.623047 113.402191,79.079224 107.994606,85.211578 &#xA;&#x9;C100.517601,93.690727 92.722023,101.892715 85.359207,110.467834 &#xA;&#x9;C76.416222,120.883308 80.070686,136.272598 92.493141,141.560562 &#xA;&#x9;C104.229210,146.556381 117.695503,138.605576 119.476517,125.450333 &#xA;&#x9;C119.987000,121.679710 119.706963,117.808380 119.938950,113.992317 &#xA;&#x9;C120.322914,107.676216 124.597885,103.661362 131.840347,103.169487 &#xA;&#x9;C131.251938,114.640266 133.774826,126.308380 128.174637,137.222122 &#xA;&#x9;C122.134529,148.993210 112.266479,155.102844 99.239754,154.860184 &#xA;&#x9;C86.190453,154.617050 76.281059,148.000977 71.087738,136.058945 &#xA;&#x9;C65.832680,123.974930 67.862587,112.349266 76.532745,102.213760 &#xA;&#x9;C80.855385,97.160553 85.431252,92.323959 90.143173,87.138168 &#xA;z"/>
  <path fill="#FBFBFB" stroke="none" d="&#xA;M107.084160,116.075882 &#xA;&#x9;C102.055206,121.605690 97.276436,126.882881 92.514893,132.141052 &#xA;&#x9;C86.735741,127.823814 87.071579,120.000046 92.573578,114.074898 &#xA;&#x9;C99.933823,106.148582 107.272469,98.191833 114.334366,90.001518 &#xA;&#x9;C122.886253,80.083122 120.874596,66.291779 110.222404,59.861324 &#xA;&#x9;C97.233177,52.020061 81.452538,60.680458 80.245384,76.367393 &#xA;&#x9;C80.028572,79.184837 80.256363,82.033562 80.154320,84.863350 &#xA;&#x9;C79.897156,91.995178 76.210884,95.842186 68.210510,96.886131 &#xA;&#x9;C68.616997,85.672585 66.359879,74.326431 71.402153,63.662346 &#xA;&#x9;C77.042877,51.732590 86.788803,45.208942 99.838989,45.158955 &#xA;&#x9;C113.050308,45.108353 123.209007,51.430645 128.649750,63.702770 &#xA;&#x9;C134.031281,75.841347 132.273071,87.404900 123.642448,97.606087 &#xA;&#x9;C118.380409,103.825684 112.781784,109.760521 107.084160,116.075882 &#xA;z"/>
</svg>